<svg id="Layer_1" data-name="Layer 1" xmlns="http://www.w3.org/2000/svg" xmlns:xlink="http://www.w3.org/1999/xlink" viewBox="0 0 750 500"><defs><style>.cls-1,.cls-12,.cls-14,.cls-16,.cls-17,.cls-2,.cls-20,.cls-21,.cls-23,.cls-24,.cls-25,.cls-26,.cls-4,.cls-7{fill:none;}.cls-1,.cls-10,.cls-11,.cls-12,.cls-13,.cls-14,.cls-15,.cls-16,.cls-17,.cls-18,.cls-19,.cls-2,.cls-20,.cls-21,.cls-23,.cls-24,.cls-25,.cls-26,.cls-3,.cls-4,.cls-5,.cls-6,.cls-7,.cls-8,.cls-9{stroke-linecap:round;stroke-linejoin:round;}.cls-1,.cls-2,.cls-23,.cls-24,.cls-25,.cls-26{stroke-width:2px;}.cls-1{stroke:url(#linear-gradient);}.cls-2{stroke:url(#linear-gradient-2);}.cls-10,.cls-11,.cls-13,.cls-15,.cls-18,.cls-19,.cls-3,.cls-5,.cls-6,.cls-8,.cls-9{fill:#fff;}.cls-10,.cls-11,.cls-12,.cls-13,.cls-14,.cls-15,.cls-16,.cls-17,.cls-18,.cls-19,.cls-20,.cls-21,.cls-3,.cls-4,.cls-5,.cls-6,.cls-7,.cls-8,.cls-9{stroke-width:1.5px;}.cls-3{stroke:url(#linear-gradient-3);}.cls-4{stroke:url(#linear-gradient-4);}.cls-5{stroke:url(#linear-gradient-5);}.cls-6{stroke:url(#linear-gradient-6);}.cls-7{stroke:url(#linear-gradient-7);}.cls-8{stroke:url(#linear-gradient-8);}.cls-9{stroke:url(#linear-gradient-9);}.cls-10{stroke:url(#linear-gradient-10);}.cls-11{stroke:url(#linear-gradient-11);}.cls-12{stroke:url(#linear-gradient-12);}.cls-13{stroke:url(#linear-gradient-13);}.cls-14{stroke:url(#linear-gradient-14);}.cls-15{stroke:url(#linear-gradient-15);}.cls-16{stroke:url(#linear-gradient-16);}.cls-17{stroke:url(#linear-gradient-17);}.cls-18{stroke:url(#linear-gradient-18);}.cls-19{stroke:url(#linear-gradient-19);}.cls-20{stroke:url(#linear-gradient-20);}.cls-21{stroke:url(#linear-gradient-21);}.cls-22{isolation:isolate;}.cls-23{stroke:url(#linear-gradient-22);}.cls-24{stroke:url(#linear-gradient-23);}.cls-25{stroke:url(#linear-gradient-24);}.cls-26{stroke:url(#linear-gradient-25);}</style><linearGradient id="linear-gradient" x1="243.62772" y1="408.62869" x2="511.62044" y2="408.62869" gradientUnits="userSpaceOnUse"><stop offset="0" stop-color="#f60"/><stop offset="1" stop-color="#ffa327"/></linearGradient><linearGradient id="linear-gradient-2" x1="355.8981" y1="363.79309" x2="388.74084" y2="363.79309" xlink:href="#linear-gradient"/><linearGradient id="linear-gradient-3" x1="384.63029" y1="303.08578" x2="391.71724" y2="303.08578" xlink:href="#linear-gradient"/><linearGradient id="linear-gradient-4" x1="363.53131" y1="320.05962" x2="378.78484" y2="320.05962" xlink:href="#linear-gradient"/><linearGradient id="linear-gradient-5" x1="376.87408" y1="282.0219" x2="391.47289" y2="282.0219" xlink:href="#linear-gradient"/><linearGradient id="linear-gradient-6" x1="392.47558" y1="259.37372" x2="403.67107" y2="259.37372" xlink:href="#linear-gradient"/><linearGradient id="linear-gradient-7" x1="409.72215" y1="242.12623" x2="426.43747" y2="242.12623" xlink:href="#linear-gradient"/><linearGradient id="linear-gradient-8" x1="396.35133" y1="278.7463" x2="412.45844" y2="278.7463" xlink:href="#linear-gradient"/><linearGradient id="linear-gradient-9" x1="366.45493" y1="261.34082" x2="391.57345" y2="261.34082" xlink:href="#linear-gradient"/><linearGradient id="linear-gradient-10" x1="397.87844" y1="263.72369" x2="408.73152" y2="263.72369" xlink:href="#linear-gradient"/><linearGradient id="linear-gradient-11" x1="387.3081" y1="267.24857" x2="402.14379" y2="267.24857" xlink:href="#linear-gradient"/><linearGradient id="linear-gradient-12" x1="390.07345" y1="269.57527" x2="399.37844" y2="269.57527" xlink:href="#linear-gradient"/><linearGradient id="linear-gradient-13" x1="396.35102" y1="312.72235" x2="397.85102" y2="312.72235" xlink:href="#linear-gradient"/><linearGradient id="linear-gradient-14" x1="391.59362" y1="283.60876" x2="397.85102" y2="283.60876" xlink:href="#linear-gradient"/><linearGradient id="linear-gradient-15" x1="391.59362" y1="309.26034" x2="393.09362" y2="309.26034" xlink:href="#linear-gradient"/><linearGradient id="linear-gradient-16" x1="387.3081" y1="281.25621" x2="428.65494" y2="281.25621" xlink:href="#linear-gradient"/><linearGradient id="linear-gradient-17" x1="361.64493" y1="281.25621" x2="402.99177" y2="281.25621" xlink:href="#linear-gradient"/><linearGradient id="linear-gradient-18" x1="397.87844" y1="303.32906" x2="423.61199" y2="303.32906" xlink:href="#linear-gradient"/><linearGradient id="linear-gradient-19" x1="387.3081" y1="295.31553" x2="402.14379" y2="295.31553" xlink:href="#linear-gradient"/><linearGradient id="linear-gradient-20" x1="390.07345" y1="297.64225" x2="399.37844" y2="297.64225" xlink:href="#linear-gradient"/><linearGradient id="linear-gradient-21" x1="387.3081" y1="350.84178" x2="399.8077" y2="350.84178" xlink:href="#linear-gradient"/><linearGradient id="linear-gradient-22" x1="301.47761" y1="177.57522" x2="334.29065" y2="177.57522" xlink:href="#linear-gradient"/><linearGradient id="linear-gradient-23" x1="316.70207" y1="307.11006" x2="359.39659" y2="307.11006" xlink:href="#linear-gradient"/><linearGradient id="linear-gradient-24" x1="238.37956" y1="171.53251" x2="443.93199" y2="171.53251" xlink:href="#linear-gradient"/><linearGradient id="linear-gradient-25" x1="325.11697" y1="186.44609" x2="357.19458" y2="186.44609" xlink:href="#linear-gradient"/></defs><path class="cls-1" d="M399.49111,364.25738c6.37181.51658,12.59,1.24841,18.61725,2.17506,21.50365,3.29441,40.62663,9.11071,55.82287,16.58032a108.387,108.387,0,0,1,14.98824,8.95234c13.73933,9.69977,21.701,20.96116,21.701,32.9122v1.87247a8.71364,8.71364,0,0,1-5.65359,8.16228C474.22639,446.38288,428.36125,453,377.07885,453c-50.86432,0-96.05708-5.05377-126.48842-15.03392a9.46838,9.46838,0,0,1-1.07249-.43628,8.70845,8.70845,0,0,1-4.89022-7.83507c0-23.43028,30.28235-47.3935,74.6538-59.05542"/><path class="cls-2" d="M356.8981,364.226q4.2644-.36265,8.61882-.57494,5.3448-.27261,10.83473-.29081h.83616q5.32657,0,10.553.19953"/><path class="cls-3" d="M385.38029,307.51247c1.78185-3.0127,3.66216-6.0213,5.587-8.85338"/><path class="cls-4" d="M371.84945,307.2022c-4.14335,10.59772-7.1616,20.23829-7.56814,25.71485H372.138s2.30481-5.10518,5.89685-12.06522"/><path class="cls-5" d="M390.72289,270.81679c-.89812,1.35546-1.78844,2.68537-2.66479,3.97833a147.87547,147.87547,0,0,0-10.434,18.43188"/><path class="cls-6" d="M402.92107,251.74137c-3.06107,4.92181-6.39222,10.19305-9.69549,15.2647"/><path class="cls-7" d="M417.68244,254.32312c4.72083-10.76436,8.005-20.43222,8.005-24.39378h-9.51072s-2.028,3.44422-5.7046,9.50285"/><path class="cls-8" d="M397.10133,290.53562c4.63682-5.48031,9.88479-14.28533,14.60711-23.57864"/><line class="cls-9" x1="367.20493" y1="255.43307" x2="390.82345" y2="267.24857"/><line class="cls-10" x1="398.62844" y1="267.24857" x2="407.98152" y2="260.19881"/><line class="cls-11" x1="388.0581" y1="267.24857" x2="401.39379" y2="267.24857"/><rect class="cls-12" x="390.82345" y="267.24857" width="7.80499" height="4.6534"/><line class="cls-13" x1="397.10102" y1="299.96895" x2="397.10102" y2="325.47576"/><polyline class="cls-14" points="392.344 295.316 392.344 271.902 397.101 271.902 397.101 295.316"/><line class="cls-15" x1="392.34362" y1="318.49324" x2="392.34362" y2="300.02745"/><path class="cls-16" d="M388.0581,229.92934s42.28135,55.51365,34.528,79.08369l-7.75331,23.57h11.68165s9.71747-58.9251-22.22614-102.65373Z"/><path class="cls-17" d="M402.24177,332.58307s-42.28135-55.51365-34.528-79.08369l7.75331-23.57H363.78538s-9.71747,58.9251,22.22614,102.65373Z"/><line class="cls-18" x1="398.62844" y1="298.58484" x2="422.86199" y2="308.07329"/><line class="cls-19" x1="388.0581" y1="295.31553" x2="401.39379" y2="295.31553"/><rect class="cls-20" x="390.82345" y="295.31555" width="7.80499" height="4.6534"/><path class="cls-21" d="M389.072,332.58307l-1.00972,33.1589v.0122l-.00421.16212h.00485a2.74924,2.74924,0,0,0,1.61686,2.25419,8.5847,8.5847,0,0,0,7.7804-.004,2.7176,2.7176,0,0,0,1.59747-2.25016l-1.01458-33.33322Z"/><g class="cls-22"><path class="cls-23" d="M322.97975,194.73825,305.2764,184.44981c-1.72659-1.00252-2.79175-3.12594-2.79872-6.15437-.0209-6.08473,4.26768-13.50618,9.5657-16.56941,2.66644-1.5386,5.07524-1.67785,6.82269-.66836l14.42458,8.38295"/></g><path class="cls-24" d="M349.18111,196.28353l7.40363,167.937,1.78575,41.39828c.013.19547.0261.378.0261.57345,0,2.99805-1.98131,6.00907-5.91782,8.30319-7.925,4.58817-20.79031,4.58817-28.76755,0-3.96261-2.29412-5.97-5.30514-6.00915-8.30319a6.19081,6.19081,0,0,1,.03914-.70385l1.52512-34.90693,6.62806-154.08119"/><g class="cls-22"><path class="cls-25" d="M347.12941,47l.34016,119.98522a7.492,7.492,0,0,1,6.75224,3.46405l23.90108-18.38518,64.8091,15.04212L353.46354,188.917c-2.69527,6.10611-7.2315,11.70771-12.38319,14.682-3.78983,2.18806-7.24179,2.57783-9.8952,1.44958l-13.89727,30.50506L239.37956,296.065l87.04875-105.48487a35.02938,35.02938,0,0,1,9.25766-17.36487l-14.07133-25.3921Z"/></g><path class="cls-26" d="M341.11071,169.16847c8.30336-4.794,15.05674-.9454,15.08379,8.5958.027,9.54126-6.68248,21.16257-14.98584,25.95651-8.31117,4.79846-15.06456.95-15.09161-8.59129C326.09,185.5883,332.79953,173.96693,341.11071,169.16847Z"/></svg>