<svg id="Layer_1" data-name="Layer 1" xmlns="http://www.w3.org/2000/svg" xmlns:xlink="http://www.w3.org/1999/xlink" viewBox="0 0 750 500"><defs><style>.cls-1,.cls-10,.cls-11,.cls-12,.cls-13,.cls-14,.cls-15,.cls-16,.cls-17,.cls-18,.cls-19,.cls-2,.cls-20,.cls-21,.cls-22,.cls-23,.cls-24,.cls-25,.cls-26,.cls-27,.cls-28,.cls-29,.cls-3,.cls-30,.cls-31,.cls-32,.cls-33,.cls-34,.cls-35,.cls-36,.cls-37,.cls-38,.cls-39,.cls-4,.cls-40,.cls-41,.cls-42,.cls-43,.cls-44,.cls-45,.cls-46,.cls-47,.cls-48,.cls-49,.cls-5,.cls-50,.cls-51,.cls-52,.cls-53,.cls-54,.cls-55,.cls-56,.cls-57,.cls-58,.cls-59,.cls-6,.cls-60,.cls-61,.cls-62,.cls-63,.cls-64,.cls-65,.cls-66,.cls-67,.cls-68,.cls-69,.cls-7,.cls-70,.cls-71,.cls-72,.cls-73,.cls-8,.cls-9{fill:none;stroke-linecap:round;stroke-linejoin:round;stroke-width:2px;}.cls-1{stroke:url(#linear-gradient);}.cls-2{stroke:url(#linear-gradient-2);}.cls-3{stroke:url(#linear-gradient-3);}.cls-4{stroke:url(#linear-gradient-4);}.cls-5{stroke:url(#linear-gradient-5);}.cls-6{stroke:url(#linear-gradient-6);}.cls-7{stroke:url(#linear-gradient-7);}.cls-8{stroke:url(#linear-gradient-8);}.cls-9{stroke:url(#linear-gradient-9);}.cls-10{stroke:url(#linear-gradient-10);}.cls-11{stroke:url(#linear-gradient-11);}.cls-12{stroke:url(#linear-gradient-12);}.cls-13{stroke:url(#linear-gradient-13);}.cls-14{stroke:url(#linear-gradient-14);}.cls-15{stroke:url(#linear-gradient-15);}.cls-16{stroke:url(#linear-gradient-16);}.cls-17{stroke:url(#linear-gradient-17);}.cls-18{stroke:url(#linear-gradient-18);}.cls-19{stroke:url(#linear-gradient-19);}.cls-20{stroke:url(#linear-gradient-20);}.cls-21{stroke:url(#linear-gradient-21);}.cls-22{stroke:url(#linear-gradient-22);}.cls-23{stroke:url(#linear-gradient-23);}.cls-24{stroke:url(#linear-gradient-24);}.cls-25{stroke:url(#linear-gradient-25);}.cls-26{stroke:url(#linear-gradient-26);}.cls-27{stroke:url(#linear-gradient-27);}.cls-28{stroke:url(#linear-gradient-28);}.cls-29{stroke:url(#linear-gradient-29);}.cls-30{stroke:url(#linear-gradient-30);}.cls-31{stroke:url(#linear-gradient-31);}.cls-32{stroke:url(#linear-gradient-32);}.cls-33{stroke:url(#linear-gradient-33);}.cls-34{stroke:url(#linear-gradient-34);}.cls-35{stroke:url(#linear-gradient-35);}.cls-36{stroke:url(#linear-gradient-36);}.cls-37{stroke:url(#linear-gradient-37);}.cls-38{stroke:url(#linear-gradient-38);}.cls-39{stroke:url(#linear-gradient-39);}.cls-40{stroke:url(#linear-gradient-40);}.cls-41{stroke:url(#linear-gradient-41);}.cls-42{stroke:url(#linear-gradient-42);}.cls-43{stroke:url(#linear-gradient-43);}.cls-44{stroke:url(#linear-gradient-44);}.cls-45{stroke:url(#linear-gradient-45);}.cls-46{stroke:url(#linear-gradient-46);}.cls-47{stroke:url(#linear-gradient-47);}.cls-48{stroke:url(#linear-gradient-48);}.cls-49{stroke:url(#linear-gradient-49);}.cls-50{stroke:url(#linear-gradient-50);}.cls-51{stroke:url(#linear-gradient-51);}.cls-52{stroke:url(#linear-gradient-52);}.cls-53{stroke:url(#linear-gradient-53);}.cls-54{stroke:url(#linear-gradient-54);}.cls-55{stroke:url(#linear-gradient-55);}.cls-56{stroke:url(#linear-gradient-56);}.cls-57{stroke:url(#linear-gradient-57);}.cls-58{stroke:url(#linear-gradient-58);}.cls-59{stroke:url(#linear-gradient-59);}.cls-60{stroke:url(#linear-gradient-60);}.cls-61{stroke:url(#linear-gradient-61);}.cls-62{stroke:url(#linear-gradient-62);}.cls-63{stroke:url(#linear-gradient-63);}.cls-64{stroke:url(#linear-gradient-64);}.cls-65{stroke:url(#linear-gradient-65);}.cls-66{stroke:url(#linear-gradient-66);}.cls-67{stroke:url(#linear-gradient-67);}.cls-68{stroke:url(#linear-gradient-68);}.cls-69{stroke:url(#linear-gradient-69);}.cls-70{stroke:url(#linear-gradient-70);}.cls-71{stroke:url(#linear-gradient-71);}.cls-72{stroke:url(#linear-gradient-72);}.cls-73{stroke:url(#linear-gradient-73);}</style><linearGradient id="linear-gradient" x1="528.36012" y1="293.04963" x2="587.80728" y2="293.04963" gradientUnits="userSpaceOnUse"><stop offset="0" stop-color="#f60"/><stop offset="1" stop-color="#ffa327"/></linearGradient><linearGradient id="linear-gradient-2" x1="526.72024" y1="314.25383" x2="529.59197" y2="314.25383" xlink:href="#linear-gradient"/><linearGradient id="linear-gradient-3" x1="501.00541" y1="317.59031" x2="504.32313" y2="317.59031" xlink:href="#linear-gradient"/><linearGradient id="linear-gradient-4" x1="285.00299" y1="356.28375" x2="319.86689" y2="356.28375" xlink:href="#linear-gradient"/><linearGradient id="linear-gradient-5" x1="317.17177" y1="341.56965" x2="347.12525" y2="341.56965" xlink:href="#linear-gradient"/><linearGradient id="linear-gradient-6" x1="165.41337" y1="353.98923" x2="272.36208" y2="353.98923" xlink:href="#linear-gradient"/><linearGradient id="linear-gradient-7" x1="157.25841" y1="191.3093" x2="282.37158" y2="191.3093" xlink:href="#linear-gradient"/><linearGradient id="linear-gradient-8" x1="166.55621" y1="184.79925" x2="244.78468" y2="184.79925" xlink:href="#linear-gradient"/><linearGradient id="linear-gradient-9" x1="150.74153" y1="185.5474" x2="282.79937" y2="185.5474" xlink:href="#linear-gradient"/><linearGradient id="linear-gradient-10" x1="228.51506" y1="169.07057" x2="265.35858" y2="169.07057" xlink:href="#linear-gradient"/><linearGradient id="linear-gradient-11" x1="151.94746" y1="202.9994" x2="212.18734" y2="202.9994" xlink:href="#linear-gradient"/><linearGradient id="linear-gradient-12" x1="222.81715" y1="199.87959" x2="236.07697" y2="199.87959" xlink:href="#linear-gradient"/><linearGradient id="linear-gradient-13" x1="146.83089" y1="196.14582" x2="292.62171" y2="196.14582" xlink:href="#linear-gradient"/><linearGradient id="linear-gradient-14" x1="205.20428" y1="186.742" x2="228.68706" y2="186.742" xlink:href="#linear-gradient"/><linearGradient id="linear-gradient-15" x1="205.23069" y1="190.28608" x2="230.51552" y2="190.28608" xlink:href="#linear-gradient"/><linearGradient id="linear-gradient-16" x1="208.96686" y1="183.43002" x2="222.7534" y2="183.43002" gradientTransform="translate(71.91059 -60.53862) rotate(19.10133)" xlink:href="#linear-gradient"/><linearGradient id="linear-gradient-17" x1="209.08436" y1="197.12807" x2="232.56714" y2="197.12807" xlink:href="#linear-gradient"/><linearGradient id="linear-gradient-18" x1="150.74153" y1="189.19848" x2="226.59163" y2="189.19848" xlink:href="#linear-gradient"/><linearGradient id="linear-gradient-19" x1="209.11078" y1="200.53241" x2="234.41561" y2="200.53241" xlink:href="#linear-gradient"/><linearGradient id="linear-gradient-20" x1="565.04625" y1="164.44063" x2="709.23181" y2="164.44063" xlink:href="#linear-gradient"/><linearGradient id="linear-gradient-21" x1="59.17665" y1="328.94497" x2="113.42866" y2="328.94497" xlink:href="#linear-gradient"/><linearGradient id="linear-gradient-22" x1="28.62281" y1="322.63798" x2="194.64962" y2="322.63798" xlink:href="#linear-gradient"/><linearGradient id="linear-gradient-23" x1="33.9311" y1="309.31633" x2="184.11706" y2="309.31633" xlink:href="#linear-gradient"/><linearGradient id="linear-gradient-24" x1="59.17665" y1="326.2042" x2="113.42866" y2="326.2042" xlink:href="#linear-gradient"/><linearGradient id="linear-gradient-25" x1="123.61579" y1="314.23051" x2="158.90117" y2="314.23051" xlink:href="#linear-gradient"/><linearGradient id="linear-gradient-26" x1="174.48442" y1="320.71083" x2="213.58713" y2="320.71083" xlink:href="#linear-gradient"/><linearGradient id="linear-gradient-27" x1="96.19662" y1="313.67209" x2="124.83382" y2="313.67209" xlink:href="#linear-gradient"/><linearGradient id="linear-gradient-28" x1="96.16539" y1="317.07649" x2="125.45369" y2="317.07649" xlink:href="#linear-gradient"/><linearGradient id="linear-gradient-29" x1="77.46812" y1="326.88378" x2="101.82066" y2="326.88378" xlink:href="#linear-gradient"/><linearGradient id="linear-gradient-30" x1="120.67033" y1="319.41692" x2="138.80313" y2="319.41692" xlink:href="#linear-gradient"/><linearGradient id="linear-gradient-31" x1="417.9855" y1="316.07794" x2="614.36612" y2="316.07794" xlink:href="#linear-gradient"/><linearGradient id="linear-gradient-32" x1="425.36502" y1="299.04547" x2="603.59337" y2="299.04547" xlink:href="#linear-gradient"/><linearGradient id="linear-gradient-33" x1="454.03618" y1="315.04955" x2="572.23147" y2="315.04955" xlink:href="#linear-gradient"/><linearGradient id="linear-gradient-34" x1="427.65869" y1="315.02321" x2="500.94832" y2="315.02321" xlink:href="#linear-gradient"/><linearGradient id="linear-gradient-35" x1="498.0353" y1="308.80352" x2="530.41619" y2="308.80352" xlink:href="#linear-gradient"/><linearGradient id="linear-gradient-36" x1="344.62349" y1="322.59807" x2="420.00381" y2="322.59807" xlink:href="#linear-gradient"/><linearGradient id="linear-gradient-37" x1="367.99198" y1="309.06957" x2="424.05342" y2="309.06957" xlink:href="#linear-gradient"/><linearGradient id="linear-gradient-38" x1="404.5616" y1="350.45835" x2="456.03618" y2="350.45835" xlink:href="#linear-gradient"/><linearGradient id="linear-gradient-39" x1="423.22761" y1="246.93201" x2="449.95136" y2="246.93201" xlink:href="#linear-gradient"/><linearGradient id="linear-gradient-40" x1="194.87705" y1="249.13866" x2="435.01376" y2="249.13866" xlink:href="#linear-gradient"/><linearGradient id="linear-gradient-41" x1="436.21155" y1="185.07438" x2="555.82754" y2="185.07438" xlink:href="#linear-gradient"/><linearGradient id="linear-gradient-42" x1="429.29889" y1="171.41204" x2="557.76271" y2="171.41204" xlink:href="#linear-gradient"/><linearGradient id="linear-gradient-43" x1="549.0452" y1="175.18555" x2="555.96436" y2="175.18555" xlink:href="#linear-gradient"/><linearGradient id="linear-gradient-44" x1="328.96807" y1="165.70562" x2="400.00203" y2="165.70562" xlink:href="#linear-gradient"/><linearGradient id="linear-gradient-45" x1="219.42982" y1="202.10662" x2="357.3648" y2="202.10662" xlink:href="#linear-gradient"/><linearGradient id="linear-gradient-46" x1="376.52368" y1="227.62788" x2="436.61919" y2="227.62788" xlink:href="#linear-gradient"/><linearGradient id="linear-gradient-47" x1="383.65583" y1="214.26413" x2="431.90803" y2="214.26413" xlink:href="#linear-gradient"/><linearGradient id="linear-gradient-48" x1="293.55733" y1="226.55283" x2="380.36587" y2="226.55283" xlink:href="#linear-gradient"/><linearGradient id="linear-gradient-49" x1="244.18001" y1="267.10913" x2="295.46299" y2="267.10913" xlink:href="#linear-gradient"/><linearGradient id="linear-gradient-50" x1="202.95975" y1="258.67268" x2="260.0161" y2="258.67268" xlink:href="#linear-gradient"/><linearGradient id="linear-gradient-51" x1="577.16289" y1="157.64841" x2="668.29971" y2="157.64841" xlink:href="#linear-gradient"/><linearGradient id="linear-gradient-52" x1="559.43641" y1="160.00873" x2="710.41826" y2="160.00873" gradientTransform="translate(47.78768 -129.82318) rotate(12.12786)" xlink:href="#linear-gradient"/><linearGradient id="linear-gradient-53" x1="647.74562" y1="145.84228" x2="693.41571" y2="145.84228" xlink:href="#linear-gradient"/><linearGradient id="linear-gradient-54" x1="560.0842" y1="174.64077" x2="628.14739" y2="174.64077" xlink:href="#linear-gradient"/><linearGradient id="linear-gradient-55" x1="640.52798" y1="180.80121" x2="658.7181" y2="180.80121" xlink:href="#linear-gradient"/><linearGradient id="linear-gradient-56" x1="553.74131" y1="172.32287" x2="721.37719" y2="172.32287" xlink:href="#linear-gradient"/><linearGradient id="linear-gradient-57" x1="621.66158" y1="161.37772" x2="648.25757" y2="161.37772" xlink:href="#linear-gradient"/><linearGradient id="linear-gradient-58" x1="621.66483" y1="165.81166" x2="649.77309" y2="165.81166" xlink:href="#linear-gradient"/><linearGradient id="linear-gradient-59" x1="626.45844" y1="157.53958" x2="641.95305" y2="157.53958" gradientTransform="translate(47.25282 -129.72668) rotate(12.12786)" xlink:href="#linear-gradient"/><linearGradient id="linear-gradient-60" x1="624.57176" y1="173.63367" x2="651.16775" y2="173.63367" xlink:href="#linear-gradient"/><linearGradient id="linear-gradient-61" x1="648.12092" y1="175.33118" x2="652.68327" y2="175.33118" xlink:href="#linear-gradient"/><linearGradient id="linear-gradient-62" x1="199.56651" y1="287.72348" x2="231.36848" y2="287.72348" xlink:href="#linear-gradient"/><linearGradient id="linear-gradient-63" x1="320.82615" y1="348.34518" x2="381.95104" y2="348.34518" xlink:href="#linear-gradient"/><linearGradient id="linear-gradient-64" x1="99.44735" y1="309.95431" x2="120.91621" y2="309.95431" gradientTransform="translate(56.90069 -14.6575) rotate(10.24786)" xlink:href="#linear-gradient"/><linearGradient id="linear-gradient-65" x1="511.2609" y1="280.05458" x2="601.87751" y2="280.05458" xlink:href="#linear-gradient"/><linearGradient id="linear-gradient-66" x1="511.2609" y1="281.7623" x2="603.56339" y2="281.7623" xlink:href="#linear-gradient"/><linearGradient id="linear-gradient-67" x1="641.41669" y1="169.47224" x2="710.41826" y2="169.47224" xlink:href="#linear-gradient"/><linearGradient id="linear-gradient-68" x1="559.43641" y1="161.74639" x2="643.41669" y2="161.74639" xlink:href="#linear-gradient"/><linearGradient id="linear-gradient-69" x1="59.17665" y1="322.41349" x2="158.90117" y2="322.41349" xlink:href="#linear-gradient"/><linearGradient id="linear-gradient-70" x1="417.9855" y1="329.54756" x2="452.57404" y2="329.54756" xlink:href="#linear-gradient"/><linearGradient id="linear-gradient-71" x1="624.575" y1="179.9634" x2="650.48152" y2="179.9634" xlink:href="#linear-gradient"/><linearGradient id="linear-gradient-72" x1="497.99436" y1="304.60594" x2="529.91477" y2="304.60594" xlink:href="#linear-gradient"/><linearGradient id="linear-gradient-73" x1="504.36636" y1="299.76925" x2="522.44935" y2="299.76925" xlink:href="#linear-gradient"/></defs><polyline class="cls-1" points="529.36 307.718 583.305 288.213 586.807 278.382"/><path class="cls-2" d="M528.1561,310.17917l.42846,6.59813a1.8787,1.8787,0,0,1-.86432,1.5512"/><path class="cls-3" d="M503.32313,321.29724c-.77978-.36811-1.24246-.82331-1.30561-1.35306l-.01211-6.0608"/><polyline class="cls-4" points="308.634 334.823 286.003 377.745 293.383 377.745 318.867 338.901"/><path class="cls-5" d="M318.17177,334.54018l.52023,3.68622a5.18945,5.18945,0,0,0,3.51687,3.984l20.39144,6.53342,3.52494-2.66563-21.68244-6.947a2.88208,2.88208,0,0,1-1.95839-2.24118l-.3729-2.49454Z"/><path class="cls-6" d="M271.36208,335.60443,210.08629,357.328s-15.20274,5.51146-21.61089,13.72356a3.49913,3.49913,0,0,1-2.769,1.32247H167.88893a1.47869,1.47869,0,0,1-1.05956-2.50759c2.88-3.04645,10.95514-8.69618,33.58155-15.99153,7.18429-2.3164,47.31-15.062,47.31-15.062,3.65093-1.1499,7.23363-2.27559,10.12252-3.1818Z"/><path class="cls-7" d="M158.25841,215.48679c7.81417-16.25913,27.42484-32.16687,54.74118-41.33459,27.41086-9.19488,52.32357-9.03491,68.372-1.40465"/><path class="cls-8" d="M167.55621,202.0867c9.49805-10.633,25.66167-20.894,45.3404-27.71375a132.82416,132.82416,0,0,1,30.88807-6.86114"/><path class="cls-9" d="M225.84186,216.19782c-34.9253,11.70875-67.54769,8.02481-73.245-8.42666-5.77224-16.668,18.2799-40.13,53.722-52.40384s68.85287-8.71167,74.62512,7.95633c1.37644,3.97463,1.057,8.33559-.70839,12.839"/><polyline class="cls-10" points="264.359 150.371 262.947 155.438 229.515 187.77"/><line class="cls-11" x1="211.18734" y1="197.31463" x2="152.94746" y2="208.68416"/><line class="cls-12" x1="223.81715" y1="194.44877" x2="235.07697" y2="205.3104"/><path class="cls-13" d="M209.70357,243.02128c-29.40814,3.83715-54.25613-4.44512-60.38958-22.15612-7.81427-22.56457,15.84267-51.68977,57.00488-65.49784,41.61867-13.9612,77.48858-6.3489,85.30284,16.21566"/><path class="cls-14" d="M220.78376,180.45056c3.4328-.18759,6.09948.73644,6.753,2.62366.98316,2.839-2.96165,6.78253-8.811,8.80819s-11.38814,1.36635-12.3713-1.47262c-.66384-1.91691.919-4.33742,3.81792-6.33109"/><path class="cls-15" d="M206.23069,189.87017l.57853,4.72986c1.04647,3.02179,6.942,3.72357,13.168,1.56746s10.42485-6.35363,9.37839-9.37543l-1.78385-3.63792"/><ellipse class="cls-16" cx="215.86013" cy="183.43002" rx="6.14941" ry="2.98462" transform="translate(-48.14064 80.73746) rotate(-19.10133)"/><path class="cls-17" d="M210.97709,197.25813a3.83443,3.83443,0,0,0-.74247,3.398c.98316,2.839,6.522,3.49829,12.37134,1.47262a22.78955,22.78955,0,0,0,5.90467-3.15247c2.30964-1.84715,3.49673-3.95065,2.90626-5.65572-.40656-1.174-1.59213-1.97523-3.25653-2.368"/><path class="cls-18" d="M225.59163,216.28146c-34.83076,11.60744-67.31107,7.90187-72.99473-8.5103-5.77224-16.668,18.2799-40.13,53.722-52.40384"/><path class="cls-19" d="M210.11078,200.11651l.57853,4.72985c1.04646,3.0218,6.942,3.72357,13.168,1.56746a26.07349,26.07349,0,0,0,2.88375-1.16749,17.39986,17.39986,0,0,0,4.97024-3.49623c1.49522-1.60743,2.01683-3.28974,1.52439-4.71171l-1.78384-3.63791"/><path class="cls-20" d="M566.04625,185.2489c10.86039-16.95419,34.74221-31.92055,66.2476-38.37562,31.6138-6.47235,59.19229-2.91922,75.938,7.70887"/><path class="cls-21" d="M112.42866,326.06833c-19.92218,4.04516-38.35751,5.93194-52.252,5.74"/><path class="cls-22" d="M187.24444,326.38556a36.25428,36.25428,0,0,1-10.87074,8.84326c-15.20414,8.18673-55.67288,25.90556-116.81332,22.89854a35.03212,35.03212,0,0,1-24.18656-10.89168c-5.98388-6.5095-9.4455-15.78708.64353-26.85941,5.788-8.98579,34.23242-20.6098,69.616-27.80483,36.51874-7.41891,68.09694-7.61076,75.7237-.9433,0,0,15.541,8.35306,11.67462,23.69789"/><path class="cls-23" d="M157.90117,313.00538a271.637,271.637,0,0,1-45.47251,13.063c-19.92218,4.04516-38.35751,5.93194-52.252,5.74-14.61394-.19186-24.20732-2.70213-25.16662-7.45081-1.87077-9.24167,29.73944-23.47178,70.62332-31.78606,40.86769-8.29828,75.53184-7.54675,77.40243,1.71083C184.12311,299.57461,174.22584,306.49786,157.90117,313.00538Z"/><path class="cls-24" d="M112.42866,326.06833c-19.92218,4.04516-38.35751,5.93194-52.252,5.74a257.3319,257.3319,0,0,1,37.02-11.22151"/><path class="cls-25" d="M124.61579,315.46892a221.4415,221.4415,0,0,1,33.28538-2.46354"/><path class="cls-26" d="M212.58713,325.22708l-25.338,1.16229a12.046,12.046,0,0,1-3.37729-.31157,17.6,17.6,0,0,1-7.22191-3.33206,3.60428,3.60428,0,0,1,.61523-5.76157,13.04346,13.04346,0,0,1,5.85193-1.412l22.275-.55346"/><path class="cls-27" d="M120.19965,308.87463c2.07518.40393,3.41862,1.16577,3.61061,2.22775.43351,2.39785-5.16745,5.41784-12.5101,6.74532s-13.64647.45978-14.08-1.93807c-.192-1.062.79975-2.24609,2.60228-3.35109"/><path class="cls-28" d="M123.81026,311.10238l.61927,4.39429c.4445,2.45864-5.29845,5.55518-12.82723,6.91631s-13.99241.47144-14.43691-1.9872l.05479-4.51615"/><line class="cls-29" x1="78.46812" y1="331.07288" x2="100.82066" y2="322.69468"/><line class="cls-30" x1="121.67033" y1="318.98523" x2="137.80313" y2="319.8486"/><path class="cls-31" d="M590.51012,337.43467c-18.62595,8.49591-67.77831,26.13079-138.93608,16.36488a40.32123,40.32123,0,0,1-27.13861-15.72636c-6.31683-8.55528-9.39687-20.244,3.55029-32.77763,7.702-10.41072,42.16349-21.79084,84.27518-27.06445,43.462-5.43428,80.39576-2.52391,88.61661,6.38815,0,0,21.49639,14.61694,8.08369,36.72236A41.60813,41.60813,0,0,1,590.51012,337.43467Z"/><path class="cls-32" d="M571.23147,308.42174c-14.7689,4.74777-33.69947,8.84556-54.51658,11.44369-23.70972,2.962-45.45652,3.433-61.67871,1.8145-17.06319-1.69-28.016-5.71485-28.64271-11.61673-1.22414-11.48634,37.20948-25.73774,85.86743-31.83209,48.63734-6.07639,89.08023-1.70517,90.30249,9.80061C603.28312,294.6111,590.99235,302.09064,571.23147,308.42174Z"/><path class="cls-33" d="M529.36012,307.71766c11.73127-.45079,32.91451-.18949,41.87135.70408-14.7689,4.74777-33.69947,8.84556-54.51658,11.44369-23.70972,2.962-45.45652,3.433-61.67871,1.8145,5.47213-1.75914,18.90251-6.83123,25.40035-8.36539"/><path class="cls-34" d="M433.50056,317.01325a15.73576,15.73576,0,0,1-4.84187-2.95206l71.28963-1.028"/><path class="cls-35" d="M528.89322,303.022l.51451,5.17442c.27736,2.32678-6.29554,5.01572-14.65087,6.01171-8.41814,1.00347-15.43855-.06511-15.71591-2.39189l-.00565-5.33978"/><line class="cls-36" x1="419.00381" y1="322.59807" x2="345.62349" y2="322.59807"/><path class="cls-37" d="M368.992,306.65528s.328,3.52577,6.47758,4.42772,47.58386,0,47.58386,0"/><polyline class="cls-38" points="441.601 351.18 455.036 378.319 448.855 378.319 405.562 322.598"/><path class="cls-39" d="M443.44314,184.40122S461.5416,226.408,432.126,280.72651a64.42607,64.42607,0,0,0-7.12505,20.2402,55.70932,55.70932,0,0,0-.7733,8.49608"/><path class="cls-40" d="M434.01376,171.61005c-8.19947-11.47926-125.4764-16.98215-176.64107,15.24176-43.29042,27.26463-57.6248,79.18935-61.01158,94.52605a20.69862,20.69862,0,0,0,.00576,8.92643c2.55816,11.63919,11.3174,41.7211,33.89011,44.22918,20.10924,2.23436,73.52893.58953,102.14374-.5199a150.8599,150.8599,0,0,0,46.48454-9.17886c1.73046-.63972,3.56431-1.37441,5.45324-2.18317"/><path class="cls-41" d="M554.82754,181.40182l-99.79136,1.76948s-12.659-.86094-17.82463,5.57564"/><polyline class="cls-42" points="430.299 171.61 552.291 170.38 556.763 172.444"/><path class="cls-43" d="M552.29108,170.38013s-6.52716,3.04893,2.67328,9.61083"/><path class="cls-44" d="M329.96807,165.26036s20.62453,1.58537,30.47047,3.32121a13.41275,13.41275,0,0,0,4.3894.0315c6.07845-.9455,22.81327-3.3206,34.17409-2.74265l-18.20282-3.23749"/><path class="cls-45" d="M261.93348,184.17389c-17.95248,7.628-36.1523,38.19477-41.35713,47.47615a1.11291,1.11291,0,0,0,1.34534,1.59313c19.1823-6.89961,41.64872-4.319,51.5645-2.62627a9.91045,9.91045,0,0,0,8.79418-2.84571c33.76889-34.84521,74.08443-52.65259,74.08443-53.12734,0,0-43.22257-9.45382-76.65021,1.68917"/><path class="cls-46" d="M384.97627,280.9309c5.12527-42.6105-3.57582-82.80428-7.25012-97.14106a6.37355,6.37355,0,0,1,4.23231-7.67722c8.83082-2.76437,19.89729-4.19609,32.04416-4.98387a6.43385,6.43385,0,0,1,5.97487,3.15029c6.11868,10.39364,22.74132,43.51,12.24555,81.629a6.341,6.341,0,0,1-2.30215,3.361c-5.46615,4.13742-23.16669,17.0389-40.98222,24.63975A2.867,2.867,0,0,1,384.97627,280.9309Z"/><path class="cls-47" d="M392.1957,248.446c1.24335-35.72163-3.80213-49.99348-7.41711-63.04581a3.358,3.358,0,0,1,2.37-4.13751A157.73237,157.73237,0,0,1,414.79,176.598a3.34784,3.34784,0,0,1,3.15382,1.662c5.07818,8.72746,11.64926,21.95628,12.96068,50.64493a3.36022,3.36022,0,0,1-1.41446,2.89795,351.90874,351.90874,0,0,1-32.3657,19.74291A3.3617,3.3617,0,0,1,392.1957,248.446Z"/><path class="cls-48" d="M364.6109,190.07693c-10.834,4.24595-44.17742,18.7979-69.11027,45.6563a3.57008,3.57008,0,0,0-.30123,4.4615c4.51266,6.50017,18.74481,23.83412,41.81465,23.16736,0,0,25.62567-.49145,39.32716-6.60662a5.08156,5.08156,0,0,0,3.02378-4.73766c-.20007-10.79271-1.3856-46.38278-8.36424-59.53779A5.11461,5.11461,0,0,0,364.6109,190.07693Z"/><path class="cls-49" d="M275.59369,252.6068l-28.74632,21.32559a4.12513,4.12513,0,0,0-1.66736,3.313v2.52267a2.50227,2.50227,0,0,0,2.84252,2.48929c8.06559-1.11717,31.35851-4.74928,44.48067-11.01373a3.4102,3.4102,0,0,0,.90508-5.54965l-13.438-12.81666A3.40327,3.40327,0,0,0,275.59369,252.6068Z"/><path class="cls-50" d="M219.95964,244.07184c7.30256-1.33394,25.12628-3.99784,37.65246-.95841a1.87193,1.87193,0,0,1,.96049,3.025l-22.026,26.18183a7.0501,7.0501,0,0,1-5.59148,2.48859,213.49556,213.49556,0,0,0-24.94071.81383,1.87338,1.87338,0,0,1-1.948-2.47731,182.8619,182.8619,0,0,1,10.9338-25.42169A7.05688,7.05688,0,0,1,219.95964,244.07184Z"/><path class="cls-51" d="M578.16289,171.66321c11.96352-10.49291,31.26125-19.67055,53.987-24.55932a148.24932,148.24932,0,0,1,35.14986-3.41566"/><ellipse class="cls-52" cx="634.92734" cy="160.00873" rx="75.79954" ry="35.64766" transform="translate(-19.44605 136.96558) rotate(-12.12786)"/><polyline class="cls-53" points="692.416 127.487 690.165 132.909 648.746 164.198"/><line class="cls-54" x1="627.14739" y1="172.28878" x2="561.0842" y2="176.99276"/><line class="cls-55" x1="641.52798" y1="170.82523" x2="657.7181" y2="190.7772"/><path class="cls-56" d="M719.74548,154.681c5.59953,26.05761-26.64933,55.0869-72.02984,64.83872s-86.708-3.46665-92.3075-29.52427,24.55614-55.119,72.02984-64.83872C675.43813,115.32915,714.146,128.62333,719.74548,154.681Z"/><path class="cls-57" d="M640.06426,154.90591c3.82853.25735,6.65767,1.64242,7.126,3.82178.7045,3.27845-4.20024,7.11287-10.95505,8.56441s-12.80179-.02946-13.50629-3.30791c-.47569-2.21365,1.60594-4.68078,5.08769-6.49669"/><path class="cls-58" d="M622.66483,163.36958v5.31849c.74987,3.48957,7.18626,5.06595,14.37607,3.52093s12.41041-5.62636,11.66053-9.11594l-1.4833-4.27208"/><ellipse class="cls-59" cx="634.20574" cy="157.53958" rx="6.86355" ry="3.33123" transform="translate(-18.9434 136.75887) rotate(-12.12786)"/><path class="cls-60" d="M626.92211,172.1977a4.27972,4.27972,0,0,0-1.283,3.66393c.7045,3.27845,6.75147,4.75946,13.50634,3.30791a25.43618,25.43618,0,0,0,6.96883-2.6924c2.80909-1.73343,4.40929-3.903,3.98617-5.872-.29133-1.35571-1.49622-2.40406-3.28694-3.06477"/><path class="cls-61" d="M649.12092,179.96393c1.87435-1.57821,2.84356-3.35134,2.49069-4.99343l-1.4833-4.27208"/><path class="cls-62" d="M230.21323,292.93335c-2.087-2.61285-2.25109-7.55312-.652-10.5132a.69845.69845,0,0,0-.61081-1.04226l-25.67537-.00006a2.70512,2.70512,0,0,0-2.69982,2.91945,56.21483,56.21483,0,0,0,1.2614,7.40684,3.04918,3.04918,0,0,0,2.97851,2.365l24.84754,0A.69862.69862,0,0,0,230.21323,292.93335Z"/><path class="cls-63" d="M380.951,324.0451l-33.48839,29.00123a35.59212,35.59212,0,0,0-5.47763,5.95627c-2.201,3.02173-5.03832,7.39071-6.19149,11.20542a3.36855,3.36855,0,0,1-3.33051,2.43514l-9.42586-.33269a1.24838,1.24838,0,0,1-1.1248-1.70024c1.37185-3.52887,5.60185-12.067,16.24962-18.81688,7.92763-5.02555,19.56221-15.1838,28.01133-22.90247"/><ellipse class="cls-64" cx="110.18178" cy="309.95431" rx="9.88161" ry="2.51227" transform="translate(-53.3853 24.54669) rotate(-10.24786)"/><path class="cls-65" d="M512.2609,278.23111c43.462-5.43428,80.39576-2.52391,88.61661,6.38815"/><path class="cls-66" d="M512.2609,278.23111c48.63734-6.07639,89.08023-1.70517,90.30249,9.80061"/><path class="cls-67" d="M709.03512,144.08371c4.13626,19.24825-25.68983,41.98192-66.61843,50.77707"/><path class="cls-68" d="M642.41669,194.86078c-40.9286,8.79515-77.46088.32123-81.59714-18.927s25.68983-41.98192,66.61843-50.77707"/><path class="cls-69" d="M157.90117,313.00538a271.637,271.637,0,0,1-45.47251,13.063c-19.92218,4.04516-38.35751,5.93194-52.252,5.74"/><path class="cls-70" d="M451.574,353.79955a40.32123,40.32123,0,0,1-27.13861-15.72636c-6.31683-8.55528-9.39687-20.244,3.55029-32.77763"/><path class="cls-71" d="M625.575,175.247v5.31848c.74988,3.48958,7.18627,5.066,14.37608,3.52094a29.10557,29.10557,0,0,0,3.353-.90266,21.13853,21.13853,0,0,0,6.17741-3.45681"/><path class="cls-72" d="M528.90537,302.804c.29024,2.39026-6.17408,5.1095-14.39956,6.08689-8.29318.99671-15.21228-.13549-15.50264-2.52575-.19349-1.63542,2.81617-3.43534,7.42245-4.71271a22.0176,22.0176,0,0,0,14.21552-1.69349C525.38279,300.1235,528.71175,301.16857,528.90537,302.804Z"/><path class="cls-73" d="M521.44429,298.80737c.04831.37742-.25161.77416-.80315,1.15157a22.0176,22.0176,0,0,1-14.21552,1.69349c-.62915-.24193-1.00645-.5516-1.05488-.929-.14518-1.21932,3.33853-2.64187,7.79006-3.1741C517.58316,297.01715,521.29911,297.58806,521.44429,298.80737Z"/></svg>