<?xml version="1.0" standalone="no"?>
<!DOCTYPE svg PUBLIC "-//W3C//DTD SVG 20010904//EN"
 "http://www.w3.org/TR/2001/REC-SVG-20010904/DTD/svg10.dtd">
<svg version="1.0" xmlns="http://www.w3.org/2000/svg"
 width="1245.000000pt" height="1245.000000pt" viewBox="0 0 1245.000000 1245.000000"
 preserveAspectRatio="xMidYMid meet">
<metadata>
Created by potrace 1.14, written by Peter Selinger 2001-2017
</metadata>
<g transform="translate(0.000000,1245.000000) scale(0.100000,-0.100000)"
fill="#000000" stroke="none">
<path d="M6207 12413 c-7 -15 -90 -163 -184 -328 -93 -165 -181 -320 -195
-345 -14 -25 -44 -77 -67 -117 -22 -39 -50 -89 -62 -110 -50 -89 -208 -369
-284 -503 -45 -80 -91 -161 -102 -180 -18 -31 -148 -261 -416 -735 -43 -77
-93 -165 -110 -195 -45 -82 -363 -644 -409 -725 -22 -38 -52 -90 -66 -115 -14
-25 -74 -131 -133 -237 -60 -106 -117 -207 -127 -225 -11 -18 -48 -85 -84
-148 -81 -143 -104 -183 -136 -240 -14 -25 -62 -110 -107 -190 -46 -80 -94
-166 -108 -191 -14 -25 -121 -214 -238 -420 -116 -206 -223 -394 -237 -419
-14 -25 -71 -126 -127 -225 -56 -99 -144 -254 -195 -345 -51 -91 -139 -246
-195 -345 -56 -99 -115 -202 -130 -230 -15 -27 -44 -79 -65 -115 -20 -36 -48
-85 -62 -110 -14 -25 -63 -112 -110 -195 -47 -82 -96 -170 -110 -195 -14 -25
-91 -160 -170 -300 -80 -140 -156 -275 -170 -300 -14 -25 -94 -166 -178 -315
-84 -148 -176 -310 -203 -360 -28 -49 -59 -103 -69 -120 -10 -16 -21 -37 -25
-45 -4 -8 -29 -53 -56 -100 -27 -47 -63 -110 -80 -140 -17 -30 -77 -138 -135
-240 -58 -102 -114 -203 -126 -225 -12 -22 -29 -51 -37 -65 -15 -23 -131 -228
-177 -310 -10 -19 -77 -138 -149 -265 -71 -126 -210 -372 -308 -545 -97 -173
-197 -348 -221 -389 -24 -41 -42 -76 -41 -77 1 -2 95 24 207 56 271 77 894
253 1360 384 206 58 398 113 425 121 28 9 136 40 240 69 105 30 408 116 675
191 267 75 616 177 775 225 160 49 475 145 700 214 226 68 523 159 660 201
138 42 414 126 615 187 201 62 366 112 367 112 1 1 4 103 7 226 9 332 14 559
31 1410 5 234 11 507 20 910 2 102 7 316 10 475 3 160 8 376 10 480 3 105 7
309 10 455 3 146 8 362 10 480 3 118 7 321 10 450 3 129 7 341 10 470 3 129 7
341 10 470 6 305 14 664 20 915 2 110 7 335 10 500 3 165 8 370 10 455 2 85 7
292 10 460 7 387 15 664 21 669 2 2 4 -81 5 -185 0 -104 2 -227 4 -274 1 -47
6 -236 9 -420 4 -184 9 -411 11 -505 2 -93 6 -294 10 -445 3 -151 7 -360 10
-465 3 -104 7 -314 10 -465 3 -151 7 -363 10 -470 2 -107 7 -314 10 -460 3
-146 8 -362 10 -480 5 -218 11 -492 20 -925 3 -132 7 -332 10 -445 3 -113 7
-326 10 -475 3 -148 7 -362 10 -475 9 -410 16 -720 20 -930 6 -271 15 -702 20
-930 2 -96 5 -237 5 -313 2 -131 3 -139 23 -148 12 -5 400 -126 862 -270 462
-144 841 -262 842 -263 1 -1 4 -51 7 -112 21 -388 187 -755 526 -1159 96 -115
127 -149 349 -383 64 -68 118 -128 119 -133 2 -5 -23 -42 -55 -82 -97 -117
-217 -289 -281 -401 -34 -62 -157 -315 -176 -363 l-16 -43 143 0 143 0 66 132
c67 134 172 310 189 316 5 2 9 8 9 14 0 8 84 125 100 138 3 3 19 22 34 43 27
36 30 37 48 21 87 -80 338 -473 393 -619 l18 -45 148 0 148 0 -20 48 c-119
278 -245 491 -427 722 -41 52 -79 100 -84 107 -7 8 23 45 95 120 412 428 587
651 725 921 43 86 49 92 72 87 30 -7 440 -123 1275 -360 688 -196 755 -215
755 -209 0 2 -88 160 -197 351 -108 192 -205 363 -215 381 -10 18 -37 66 -59
105 -23 40 -53 92 -67 117 -48 85 -245 436 -350 620 -107 188 -132 233 -178
318 -14 26 -30 52 -34 57 -4 6 -20 33 -35 60 -15 28 -156 277 -313 555 -157
278 -299 530 -315 560 -16 30 -33 60 -37 65 -5 6 -20 33 -36 60 -77 140 -420
746 -445 788 -16 27 -29 50 -29 52 0 2 24 54 54 117 66 138 173 397 180 433 3
14 36 125 47 155 10 29 63 263 75 330 8 52 8 52 19 145 4 39 10 79 12 90 8 35
10 427 3 469 -4 23 -11 71 -14 108 -29 316 -185 751 -379 1054 -142 224 -276
381 -497 584 -95 88 -277 216 -438 308 -145 83 -130 85 -187 -26 -16 -31 -39
-73 -52 -94 -26 -42 -29 -38 72 -94 38 -21 79 -44 90 -51 11 -7 27 -15 35 -19
22 -11 189 -132 247 -178 91 -74 298 -291 371 -388 184 -246 313 -497 395
-768 38 -126 59 -219 73 -320 3 -25 8 -54 11 -65 3 -11 6 -112 8 -225 4 -259
-3 -332 -61 -625 -33 -167 -168 -555 -218 -626 -14 -20 -14 -20 -28 8 -8 15
-94 168 -190 338 -97 171 -186 328 -198 350 -12 22 -39 69 -60 105 -20 36 -49
85 -62 110 -14 25 -85 151 -158 280 -73 129 -141 250 -152 268 -10 18 -37 66
-59 105 -23 40 -53 92 -67 117 -14 25 -190 338 -392 695 -202 358 -378 670
-392 695 -14 25 -63 110 -108 190 -100 175 -116 203 -145 255 -250 444 -450
797 -610 1080 -192 338 -251 444 -310 550 -15 28 -31 55 -35 60 -4 6 -22 37
-40 70 -18 33 -88 157 -155 275 -67 118 -133 235 -147 260 -62 110 -157 278
-178 315 -13 22 -78 138 -146 258 l-122 218 -15 -28z m2518 -9921 c160 -50
396 -120 525 -157 129 -36 258 -72 285 -80 28 -8 169 -48 314 -89 145 -42 266
-77 268 -80 8 -8 -106 -214 -149 -271 -4 -5 -40 -53 -80 -105 -99 -132 -183
-228 -375 -429 -44 -47 -105 -111 -133 -141 l-52 -55 -95 100 c-110 116 -262
279 -293 315 -12 14 -29 34 -38 45 -9 12 -38 45 -63 75 -161 193 -306 442
-367 630 -45 136 -76 347 -50 338 7 -3 144 -46 303 -96z"/>
</g>
</svg>
