<svg xmlns="http://www.w3.org/2000/svg" xmlns:xlink="http://www.w3.org/1999/xlink" viewBox="0 0 750 500"><defs><style>.cls-1{isolation:isolate;}.cls-10,.cls-11,.cls-12,.cls-13,.cls-14,.cls-15,.cls-16,.cls-17,.cls-18,.cls-19,.cls-2,.cls-20,.cls-21,.cls-22,.cls-23,.cls-24,.cls-25,.cls-26,.cls-27,.cls-28,.cls-3,.cls-30,.cls-31,.cls-32,.cls-33,.cls-4,.cls-5,.cls-6{fill:none;}.cls-10,.cls-11,.cls-12,.cls-13,.cls-14,.cls-15,.cls-16,.cls-17,.cls-18,.cls-19,.cls-2,.cls-20,.cls-21,.cls-22,.cls-23,.cls-24,.cls-25,.cls-26,.cls-27,.cls-28,.cls-29,.cls-3,.cls-30,.cls-31,.cls-32,.cls-33,.cls-4,.cls-5,.cls-6,.cls-9{stroke-linecap:round;stroke-linejoin:round;stroke-width:2px;}.cls-2{stroke:url(#linear-gradient);}.cls-3{stroke:url(#linear-gradient-2);}.cls-4{stroke:url(#linear-gradient-3);}.cls-5{stroke:url(#linear-gradient-4);}.cls-6{stroke:url(#linear-gradient-5);}.cls-7{fill:url(#linear-gradient-6);}.cls-8{fill:url(#linear-gradient-7);}.cls-29,.cls-9{fill:#fff;}.cls-9{stroke:url(#linear-gradient-8);}.cls-10{stroke:url(#linear-gradient-9);}.cls-11{stroke:url(#linear-gradient-10);}.cls-12{stroke:url(#linear-gradient-11);}.cls-13{stroke:url(#linear-gradient-12);}.cls-14{stroke:url(#linear-gradient-13);}.cls-15{stroke:url(#linear-gradient-14);}.cls-16{stroke:url(#linear-gradient-15);}.cls-17{stroke:url(#linear-gradient-16);}.cls-18{stroke:url(#linear-gradient-17);}.cls-19{stroke:url(#linear-gradient-18);}.cls-20{stroke:url(#linear-gradient-19);}.cls-21{stroke:url(#linear-gradient-20);}.cls-22{stroke:url(#linear-gradient-21);}.cls-23{stroke:url(#linear-gradient-22);}.cls-24{mix-blend-mode:multiply;stroke:url(#linear-gradient-23);}.cls-25{stroke:url(#linear-gradient-24);}.cls-26{stroke:url(#linear-gradient-25);}.cls-27{stroke:url(#linear-gradient-26);}.cls-28{stroke:url(#linear-gradient-27);}.cls-29{stroke:url(#linear-gradient-28);}.cls-30{stroke:url(#linear-gradient-29);}.cls-31{stroke:url(#linear-gradient-30);}.cls-32{stroke:url(#linear-gradient-31);}.cls-33{stroke:url(#linear-gradient-32);}</style><linearGradient id="linear-gradient" x1="203.08087" y1="217.53587" x2="224.64293" y2="217.53587" gradientUnits="userSpaceOnUse"><stop offset="0" stop-color="#f60"/><stop offset="1" stop-color="#ffa327"/></linearGradient><linearGradient id="linear-gradient-2" x1="202.75781" y1="239.47318" x2="231.19321" y2="239.47318" xlink:href="#linear-gradient"/><linearGradient id="linear-gradient-3" x1="417.95267" y1="304.94562" x2="443.55876" y2="304.94562" xlink:href="#linear-gradient"/><linearGradient id="linear-gradient-4" x1="415.9427" y1="322.81863" x2="444.6356" y2="322.81863" xlink:href="#linear-gradient"/><linearGradient id="linear-gradient-5" x1="445.06033" y1="282.00325" x2="613.16882" y2="282.00325" xlink:href="#linear-gradient"/><linearGradient id="linear-gradient-6" x1="112.57799" y1="152.6868" x2="190.79382" y2="143.30455" gradientUnits="userSpaceOnUse"><stop offset="0" stop-color="#f60" stop-opacity="0"/><stop offset="1" stop-color="#ffa327"/></linearGradient><linearGradient id="linear-gradient-7" x1="135.01757" y1="138.83889" x2="208.73002" y2="129.99683" xlink:href="#linear-gradient-6"/><linearGradient id="linear-gradient-8" x1="392.4401" y1="323.78436" x2="399.10543" y2="323.78436" xlink:href="#linear-gradient"/><linearGradient id="linear-gradient-9" x1="424.74526" y1="909.29786" x2="494.90099" y2="909.29786" gradientTransform="translate(-179.38435 -500.89598) rotate(-9.92939)" xlink:href="#linear-gradient"/><linearGradient id="linear-gradient-10" x1="410.98731" y1="310.39061" x2="480.1534" y2="310.39061" xlink:href="#linear-gradient"/><linearGradient id="linear-gradient-11" x1="208.30763" y1="714.87944" x2="267.82229" y2="714.87944" gradientTransform="matrix(0.99099, -0.13395, 0.13395, 0.99099, -114.91804, -444.85062)" xlink:href="#linear-gradient"/><linearGradient id="linear-gradient-12" x1="201.83329" y1="228.03049" x2="256.54952" y2="228.03049" xlink:href="#linear-gradient"/><linearGradient id="linear-gradient-13" x1="181.8672" y1="251.4587" x2="682.32059" y2="251.4587" xlink:href="#linear-gradient"/><linearGradient id="linear-gradient-14" x1="181.87663" y1="263.30722" x2="563.21274" y2="263.30722" xlink:href="#linear-gradient"/><linearGradient id="linear-gradient-15" x1="524.70894" y1="322.86252" x2="692.69546" y2="322.86252" xlink:href="#linear-gradient"/><linearGradient id="linear-gradient-16" x1="594.32626" y1="252.51204" x2="672.52365" y2="252.51204" xlink:href="#linear-gradient"/><linearGradient id="linear-gradient-17" x1="241.42866" y1="156.7482" x2="510.44959" y2="156.7482" xlink:href="#linear-gradient"/><linearGradient id="linear-gradient-18" x1="390.63125" y1="196.325" x2="596.36711" y2="196.325" xlink:href="#linear-gradient"/><linearGradient id="linear-gradient-19" x1="401.52868" y1="197.33208" x2="577.32583" y2="197.33208" xlink:href="#linear-gradient"/><linearGradient id="linear-gradient-20" x1="254.22694" y1="197.62645" x2="430.04876" y2="197.62645" xlink:href="#linear-gradient"/><linearGradient id="linear-gradient-21" x1="368.99611" y1="237.16009" x2="385.74319" y2="237.16009" xlink:href="#linear-gradient"/><linearGradient id="linear-gradient-22" x1="344.5868" y1="222.96466" x2="389.25916" y2="222.96466" xlink:href="#linear-gradient"/><linearGradient id="linear-gradient-23" x1="344.59014" y1="223.97056" x2="358.18318" y2="223.97056" xlink:href="#linear-gradient"/><linearGradient id="linear-gradient-24" x1="511.15053" y1="296.18934" x2="570.42593" y2="296.18934" xlink:href="#linear-gradient"/><linearGradient id="linear-gradient-25" x1="649.23098" y1="254.80807" x2="666.07704" y2="254.80807" xlink:href="#linear-gradient"/><linearGradient id="linear-gradient-26" x1="678.2896" y1="310.97387" x2="687.29152" y2="310.97387" xlink:href="#linear-gradient"/><linearGradient id="linear-gradient-27" x1="511.15054" y1="349.33149" x2="594.9573" y2="349.33149" xlink:href="#linear-gradient"/><linearGradient id="linear-gradient-28" x1="313.98665" y1="177.71413" x2="339.428" y2="177.71413" xlink:href="#linear-gradient"/><linearGradient id="linear-gradient-29" x1="263.50235" y1="270.05817" x2="312.81849" y2="270.05817" xlink:href="#linear-gradient"/><linearGradient id="linear-gradient-30" x1="82.34753" y1="593.4926" x2="600.33256" y2="593.4926" gradientTransform="translate(-77.67421 -226.34613) rotate(-6.84014)" xlink:href="#linear-gradient-6"/><linearGradient id="linear-gradient-31" x1="85.66303" y1="570.48459" x2="612.05781" y2="570.48459" gradientTransform="translate(-77.67421 -226.34613) rotate(-6.84014)" xlink:href="#linear-gradient-6"/><linearGradient id="linear-gradient-32" x1="88.97853" y1="546.92929" x2="622.44089" y2="546.92929" gradientTransform="translate(-77.67421 -226.34613) rotate(-6.84014)" xlink:href="#linear-gradient-6"/></defs><g class="cls-1"><g id="Layer_1" data-name="Layer 1"><path class="cls-2" d="M204.08087,221.47955c1.97419-6.68823,7.60946-9.69135,13.87888-6.772a17.7572,17.7572,0,0,1,5.68318,4.39106"/><path class="cls-3" d="M229.11082,229.14881a25.1178,25.1178,0,0,1,1.02879,8.80591c-.658,9.38026-7.19072,14.17807-14.57277,10.72029-5.80279-2.704-10.40912-9.70326-11.809-17.12131"/><path class="cls-4" d="M418.95267,302.22846c2.59622-4.48671,7.382-6.16178,12.59873-3.721,4.97716,2.333,9.0691,7.80085,11.00736,13.99849"/><path class="cls-5" d="M443.6356,322.73577c-1.04091,8.72215-7.35825,13.07727-14.48909,9.73911-6.66435-3.12274-11.76127-11.86884-12.20381-20.43545"/><path class="cls-6" d="M446.06033,239.64675c9.6564,3.16436,105.3936,35.33876,166.10849,84.713"/><path class="cls-7" d="M192.1874,167.78686l-81.55035-39.67731,82.40546,37.86933a1.00008,1.00008,0,0,1-.83518,1.81744Z"/><path class="cls-8" d="M209.95379,153.06359l-76.70743-37.38675,77.56256,35.57877a1.00007,1.00007,0,1,1-.83395,1.818Z"/><line class="cls-9" x1="398.10543" y1="323.79085" x2="393.4401" y2="323.77786"/><path class="cls-10" d="M431.76766,270.54164c19.863,8.35809,35.32862,35.25794,34.54312,60.08673-.78527,24.824-17.52419,38.17222-37.38714,29.81413-19.863-8.35814-35.32869-35.25771-34.54336-60.08169C395.16572,275.532,411.90464,262.18351,431.76766,270.54164Z"/><path class="cls-11" d="M479.1534,346.16321v3.70537l-30.44933,11.58561c10.13621-3.8585,17.108-15.01542,17.60813-30.827.02044-.45936.02044-.91865.03065-1.378a67.358,67.358,0,0,0-4.46072-23.96752c-.07146-.2041-.14292-.39805-.2246-.60222-.19394-.51038-.39805-1.01054-.60221-1.5107-.06125-.16336-.13271-.3165-.19395-.47979-.44914-1.07179-.92893-2.14358-1.42909-3.195a67.52318,67.52318,0,0,0-13.48422-19.23111,45.87838,45.87838,0,0,0-14.17839-9.71767c-7.21679-3.03169-14.00488-3.21542-19.78236-1.01054L438.77208,259.327c19.58841,8.37026,34.47113,30.9903,38.96244,64.68565A166.75018,166.75018,0,0,1,479.1534,346.16321Z"/><path class="cls-12" d="M219.438,193.8395c16.47449,7.70042,28.6318,30.89138,27.15372,51.802-1.47778,20.90659-16.03112,31.61228-32.50561,23.91186s-28.63182-30.89116-27.154-51.79769C188.41013,196.845,202.96349,186.13908,219.438,193.8395Z"/><path class="cls-13" d="M255.37191,254.57025q-.21438,4.08822-.72476,8.38047l-23.86541,8.04361c8.67647-2.91936,14.92353-12.10622,15.85245-25.417.02044-.194.03059-.3879.04081-.58184,0-.194.01022-.37768.02044-.58185h.01021a56.90857,56.90857,0,0,0-2.97045-20.36413l-.15307-.45936c-.51038-1.52092-1.09222-3.02148-1.71487-4.49137A56.95572,56.95572,0,0,0,231.11861,202.44a38.77919,38.77919,0,0,0-11.6367-8.66625c-5.97143-2.79688-11.69789-3.16434-16.64862-1.50049l21.436-7.20657C242.66342,194.14117,257.342,218.12906,255.37191,254.57025Z"/><path class="cls-14" d="M586.83505,366.46484c-23.87825,4.27213-44.78231,5.47757-53.0607,4.10475L479.1534,356.82V346.16321c0-56.81561-25.63131-90.44971-58.15275-90.44971a27.78519,27.78519,0,0,0-22.60989,11.36108,40.7125,40.7125,0,0,0-7.9109,24.35541l-.08167,5.14462a102.21693,102.21693,0,0,0,2.14363,22.89567l.89828,4.30758L254.03471,267.53393c8.37026-55.40689-19.35365-86.56055-46.83253-86.56055-7.13511.26541-12.33082,5.21608-15.89326,12.27973-3.58289,7.06371-5.52229,16.21991-6.13479,24.89638a56.87391,56.87391,0,0,1,3.06229-40.15671l7.97214-17.05695a14.05787,14.05787,0,0,1,10.29951-7.89046l99.77942-17.41419s102.04548-15.93413,203.1621,17.26105c-7.06366.33687-51.29326,3.246-116.31571,25.58028a2.22728,2.22728,0,0,0-1.20455,3.21542c.01022.01022.01022.02037.02043.03059.07146.0919.13271.17351.17352.2246a.45528.45528,0,0,0,.08167.11227s10.40156,8.3396,51.43618,56.22355a4.02411,4.02411,0,0,0,2.99083,1.41881c12.68805.15314,51.89553.20417,72.49449-2.31708l61.35794-18.34312c12.31038-11.75913,14.88272-20.01711,14.88272-20.01711a230.919,230.919,0,0,1,43.464,23.68167c22.38528,15.56661,42.872,48.18,42.48408,51.98737-.36746,3.7972-3.3129,19.199-3.3129,19.199"/><path class="cls-15" d="M562.21274,369.94694c-12.90237,1.31676-23.19167,1.50048-28.43839.62265l-11.16714-2.8071L479.1534,356.82V346.16321a166.75018,166.75018,0,0,0-1.41888-22.15053c-4.49131-33.69535-19.374-56.31539-38.96244-64.68565a44.90189,44.90189,0,0,0-17.77143-3.61353,27.78519,27.78519,0,0,0-22.60989,11.36108,40.7125,40.7125,0,0,0-7.9109,24.35541l-.08167,5.14462a102.21693,102.21693,0,0,0,2.14363,22.89567l.89828,4.30758L254.03471,267.53393c.23476-1.55157.43892-3.0725.61244-4.58321q.50529-4.28717.72476-8.38047c1.97006-36.44119-12.70849-60.42908-31.10263-69.5036a38.46991,38.46991,0,0,0-17.0671-4.09327c-7.13511.26541-12.33082,5.21608-15.89326,12.27973a62.46324,62.46324,0,0,0-5.61419,19.73133c-.22454,1.72509-.39811,3.45018-.5206,5.165a57.02146,57.02146,0,0,1,3.06229-40.15671l7.07386-15.12769.89828-1.92926a13.90732,13.90732,0,0,1,1.92925-3.03169,14.704,14.704,0,0,1,2.58256-2.39876,181.86011,181.86011,0,0,1,44.37246,11.8l13.80072,15.89326a139.10241,139.10241,0,0,0,16.86293,14.90309,137.45641,137.45641,0,0,0,16.7303,10.78945c28.29553,15.49515,73.43357,39.96283,78.864,41.51441,3.981,1.133,24.141-5.20592,32.95014-7.32912,10.02388-2.409,39.2585-4.92,87.13224,31.20468,15.883,11.98373,33.80761,28.21386,53.7737,50.11942"/><path class="cls-16" d="M525.70894,330.91533a127.07586,127.07586,0,0,1,16.398-5.85714,59.235,59.235,0,0,1,7.16487-1.29616,124.03254,124.03254,0,0,1,15.09755-.78c6.90073,0,14.25752.336,22.04648.68408,8.26875.38405,16.81365.768,25.29848.768,3.82848,0,7.30888-.084,10.64527-.24,27.5789-1.30817,50.53734-18.134,52.82962-20.48618.78-1.0441,2.31617-6.70874,3.22827-12.06126l2.20834-12.87742,10.02089,25.98279a14.55,14.55,0,0,1,.97217,6.82872,20.48977,20.48977,0,0,1-.64811,3.36034.53984.53984,0,0,1-.05992.228c-10.37592,27.25411-62.95074,44.51013-103.4339,51.78661"/><path class="cls-17" d="M595.32626,199.15315c37.6763,21.681,69.18476,91.36552,76.19739,106.71777"/><path class="cls-18" d="M509.44959,152.89223c-7.06366.33687-51.29326,3.246-116.31571,25.58028a2.22728,2.22728,0,0,0-1.20455,3.21542c-3.0112-3.86873-30.73511-36.66579-102.24965-32.14376-30.42889,1.92919-43.00468-.89828-47.251-2.76629l63.84861-11.1467S408.34319,119.69705,509.44959,152.89223Z"/><path class="cls-19" d="M595.36711,199.02044s-.01022.04081-.04087.1327c-.38789,1.09222-3.42974,8.98269-14.84185,19.88441l-61.35794,18.34312c-20.599,2.52125-59.80644,2.47022-72.49449,2.31708a3.49786,3.49786,0,0,1-.57163-.051,4.01171,4.01171,0,0,1-2.4192-1.36779C402.60651,190.395,392.205,182.05539,392.205,182.05539a.45528.45528,0,0,1-.08167-.11227c-.04081-.05109-.10206-.1327-.17352-.2246-.01021-.01022-.01021-.02037-.02043-.03059a2.22728,2.22728,0,0,1,1.20455-3.21542c65.02245-22.33427,109.25205-25.24341,116.31571-25.58028C510.09068,152.84874,550.729,172.12122,595.36711,199.02044Z"/><path class="cls-20" d="M574.32757,202.66634c-12.59535,5.38869-47.337,18.252-118.09271,31.84492a10.557,10.557,0,0,1-9.92-3.40872c-37.205-42.504-44.99186-47.01029-43.64436-47.47311,60.38706-20.74111,100.67176-23.35715,107.22737-23.66516.58738-.02762,26.37632,13.79591,64.81193,36.82295A3.30683,3.30683,0,0,1,574.32757,202.66634Z"/><path class="cls-21" d="M348.01738,216.34537c-24.30777-13.31288-50.27167-30.0386-59.23752-44.72192a5.657,5.657,0,0,0-5.68755-2.73277c-5.77079.90208-15.05662,3.592-21.216,5.286a5.73818,5.73818,0,0,1-6.362-2.4454v-.00006a1.82473,1.82473,0,0,1,1.024-2.73205s30.915-10.83966,43.959-14.43874c1.83989-.50766,47.03452-.34147,81.91644,25.65443,12.427,9.26127,28.85394,28.15022,46.25489,53.18616a2.12959,2.12959,0,0,1-1.45007,3.32324l-28.67207,4.05762a2.13226,2.13226,0,0,1-1.159-.1611c-.88381-.39054-6.22431-2.72062-14.1325-6.43785"/><path class="cls-22" d="M384.74319,230.3782l-3.246,8.29879s-2.9398,6.95138-8.064,4.87927c-5.12418-2.07218-3.001-5.23651-3.001-5.23651l4.277-7.23723C378.98608,230.78653,382.77313,230.52112,384.74319,230.3782Z"/><path class="cls-23" d="M386.20287,230.27614s-.53081.04081-1.45968.10206c-1.97006.14292-5.75711.40833-10.0341.70432-9.18685.62272-20.62955,1.34742-21.23182,1.14331-1.031-.3573-7.89047-9.54415-7.89047-9.54415s1.54136-6.35933,4.11364-7.06365,23.304-1.94969,23.304-1.94969S394.94059,224.10055,386.20287,230.27614Z"/><path class="cls-24" d="M349.54327,215.68258c7.89589,4.51994,8.36445,8.68561,7.11231,13.97859a4.36623,4.36623,0,0,1-2.52492,2.59737,3.328,3.328,0,0,1-.658-.03583c-1.028-.35288-7.88255-9.54-7.88255-9.54S347.07044,216.60372,349.54327,215.68258Z"/><path class="cls-25" d="M569.42593,300.20873,512.15053,283.893a207.923,207.923,0,0,1,22.86887,19.24886,12.208,12.208,0,0,0,7.57133,3.57576l19.94165,1.7469a3.90045,3.90045,0,0,0,3.90688-2.16272Z"/><path class="cls-26" d="M662.9782,270.53759l-4.84134-6.55941L650.231,238.67935l11.11183,14.87786a23.7945,23.7945,0,0,1,3.38612,16.59505h0A.98129.98129,0,0,1,662.9782,270.53759Z"/><path class="cls-27" d="M682.09711,298.52878l3.63825,9.43153a7.489,7.489,0,0,1,.52026,3.48153c-.44625,4.13942-2.9177,8.1697-6.966,11.97713l.852-14.48234a25.70085,25.70085,0,0,1,.80336-5.09759C681.63075,301.26033,682.09711,298.52878,682.09711,298.52878Z"/><path class="cls-28" d="M512.15054,347.2037c3.89506-3.80247,11.98414-8.33652,21.00251-10.5911,10.41354-2.60331,26.29889-.9753,42.7069-.50468,5.89929.1692,11.17614,1.75515,13.53762,7.16382l4.55973,10.44364a240.92018,240.92018,0,0,1-56.08169,9.7752"/><line class="cls-29" x1="314.98665" y1="195.46402" x2="338.428" y2="159.96423"/><path class="cls-30" d="M311.81849,281.79569l-42.91162-17.10237a6.99124,6.99124,0,0,1-4.40452-6.37267l29.151,4.12844"/><g class="cls-1"><polyline class="cls-31" points="605.538 437.101 596.869 429.816 581.485 418.048 565.401 407.078 548.817 397.302 531.934 389.116 525.709 386.591 519.483 384.352 513.266 382.417 507.067 380.805 500.897 379.535 494.766 378.626 488.683 378.098 482.66 377.969 475.202 377.929 468.068 377.594 461.213 376.948 454.595 375.978 448.167 374.669 441.888 373.006 435.711 370.975 429.594 368.561 423.579 365.792 417.549 362.631 411.46 359.064 405.273 355.081 398.944 350.671 392.432 345.822 385.695 340.524 378.691 334.763 371.366 328.514 363.684 321.774 355.602 314.528 347.078 306.764 338.067 298.468 328.526 289.626 318.412 280.225 307.682 270.251 299.474 262.854 291.617 256.218 284.099 250.308 276.909 245.091 270.034 240.534 263.464 236.603 257.186 233.265 251.19 230.485 242.827 227.345 235.005 225.244 227.687 224.083 220.838 223.76 214.423 224.177 208.405 225.231 202.749 226.824 197.419 228.855 192.381 231.218 187.607 233.82 183.063 236.557 178.711 239.326 174.516 242.026 170.442 244.552 166.452 246.803 162.511 248.676 160.47 249.394 158.29 249.912 155.982 250.239 153.553 250.386 151.013 250.359 148.371 250.169 145.635 249.825 142.814 249.336 139.918 248.715 136.955 247.967 133.934 247.102 130.863 246.126 127.75 245.05 124.605 243.88 121.436 242.627 118.251 241.297 107.21 236.218 96.451 230.685 86.339 225.044 77.24 219.645 69.521 214.837 63.548 210.967 59.687 208.384 58.305 207.437"/></g><g class="cls-1"><polyline class="cls-32" points="614.991 417.459 611.352 414.148 596.869 401.978 581.485 390.21 565.401 379.24 548.817 369.464 531.934 361.278 525.709 358.753 519.483 356.514 513.266 354.579 507.067 352.967 500.897 351.697 494.766 350.788 488.683 350.26 482.66 350.131 475.202 350.091 468.068 349.756 461.213 349.11 454.595 348.14 448.167 346.831 441.888 345.168 435.711 343.137 429.594 340.723 423.579 337.954 417.549 334.793 411.46 331.226 405.273 327.243 398.944 322.833 392.432 317.984 385.695 312.686 378.691 306.925 371.366 300.676 363.684 293.936 355.602 286.69 347.078 278.926 338.067 270.63 328.526 261.788 318.412 252.387 307.682 242.413 299.474 235.016 291.617 228.38 284.099 222.47 276.909 217.253 270.034 212.696 263.464 208.765 257.186 205.427 251.19 202.647 242.827 199.507 235.005 197.406 227.687 196.245 220.838 195.922 214.423 196.338 208.405 197.393 202.749 198.986 197.419 201.017 192.381 203.38 187.607 205.982 183.063 208.719 178.711 211.488 174.516 214.188 170.442 216.714 166.452 218.965 162.511 220.838 160.47 221.556 158.29 222.074 155.982 222.401 153.553 222.547 151.013 222.521 148.371 222.331 145.635 221.987 142.814 221.498 139.918 220.877 136.955 220.129 133.934 219.264 130.863 218.288 127.75 217.212 124.605 216.042 121.436 214.788 118.251 213.459 107.21 208.38 96.451 202.846 86.339 197.206 77.24 191.807 69.521 186.999 63.548 183.129 59.687 180.546 58.305 179.599"/></g><g class="cls-1"><polyline class="cls-33" points="622.981 396.89 611.352 386.31 596.869 374.14 581.485 362.372 565.401 351.402 548.817 341.625 531.934 333.44 525.709 330.915 519.483 328.676 513.266 326.741 507.067 325.129 500.897 323.859 494.766 322.95 488.683 322.422 482.66 322.293 475.202 322.253 468.068 321.918 461.213 321.272 454.595 320.302 448.167 318.993 441.888 317.33 435.711 315.299 429.594 312.885 423.579 310.116 417.549 306.954 411.46 303.388 405.273 299.405 398.944 294.995 392.432 290.146 385.695 284.847 378.691 279.087 371.366 272.838 363.684 266.098 355.602 258.852 347.078 251.088 338.067 242.792 328.526 233.95 318.412 224.549 307.682 214.575 299.474 207.178 291.617 200.542 284.099 194.632 276.909 189.415 270.034 184.858 263.464 180.927 257.186 177.588 251.19 174.809 242.827 171.669 235.005 169.568 227.687 168.406 220.838 168.084 214.423 168.5 208.405 169.555 202.749 171.148 197.419 173.179 192.381 175.542 187.607 178.144 183.063 180.881 178.711 183.65 174.516 186.35 170.442 188.876 166.452 191.127 162.511 193 160.47 193.717 158.29 194.236 155.982 194.563 153.553 194.709 151.013 194.683 148.371 194.493 145.635 194.149 142.814 193.66 139.918 193.039 136.955 192.291 133.934 191.426 130.863 190.45 127.75 189.373 124.605 188.204 121.436 186.95 118.251 185.621 107.21 180.542 96.451 175.008 86.339 169.368 77.24 163.969 69.521 159.161 63.548 155.291 59.687 152.708 58.305 151.761"/></g></g></g></svg>